<?xml version="1.0" standalone="no"?><!DOCTYPE svg PUBLIC "-//W3C//DTD SVG 1.1//EN" "http://www.w3.org/Graphics/SVG/1.1/DTD/svg11.dtd"><svg t="1675776826090" class="icon" viewBox="0 0 1024 1024" version="1.1" xmlns="http://www.w3.org/2000/svg" p-id="3049" xmlns:xlink="http://www.w3.org/1999/xlink" width="200" height="200"><path d="M42.666667 149.333333a21.333333 21.333333 0 0 1 21.333333-21.333333h896a21.333333 21.333333 0 0 1 0 42.666667H64a21.333333 21.333333 0 0 1-21.333333-21.333334z m405.333333 746.666667H64a21.333333 21.333333 0 0 0 0 42.666667h384a21.333333 21.333333 0 0 0 0-42.666667z m0-384H64a21.333333 21.333333 0 0 0 0 42.666667h384a21.333333 21.333333 0 0 0 0-42.666667z m533.333333 213.333333a52.813333 52.813333 0 0 1-21.866666 43.066667l-277.333334 202.6a53.333333 53.333333 0 0 1-84.8-43.06V522.726667a53.333333 53.333333 0 0 1 84.8-43.06l277.333334 202.6a52.813333 52.813333 0 0 1 21.866666 43.066666z m-42.666666 0a10.453333 10.453333 0 0 0-4.373334-8.613333l-277.333333-202.606667a10.293333 10.293333 0 0 0-6.18-2.1 11.18 11.18 0 0 0-4.94 1.2 10.413333 10.413333 0 0 0-5.84 9.513334v405.213333a10.666667 10.666667 0 0 0 16.96 8.613333l277.333333-202.606666A10.453333 10.453333 0 0 0 938.666667 725.333333z" fill="#fff" p-id="3050"></path></svg>